<?xml version="1.0" encoding="utf-8"?>
<!-- Generator: Adobe Illustrator 19.2.1, SVG Export Plug-In . SVG Version: 6.00 Build 0)  -->
<svg version="1.1" id="レイヤー_1" xmlns="http://www.w3.org/2000/svg" xmlns:xlink="http://www.w3.org/1999/xlink" x="0px"
	 y="0px" viewBox="0 0 54.1 54.1" style="enable-background:new 0 0 54.1 54.1;" xml:space="preserve">
<style type="text/css">
	.st0{fill:#FF7850;}
</style>
<path class="st0" d="M50.1,10.6L17.7,0.3c-3-0.9-6.2,0.7-7.1,3.7L0.3,36.3c-0.9,3,0.7,6.2,3.7,7.1l32.4,10.4c3,0.9,6.2-0.7,7.1-3.7
	l10.4-32.4C54.7,14.8,53.1,11.6,50.1,10.6z M46.7,28.6c-1.1,1.3-2.5,0.2-4.2,2c-1.7,1.9-0.1,3.2-1.6,4.8c-1,1-2.7,1.1-3.8,0
	c-1.5-1.5,0-3.2-2.6-5.7c-2.9-2.7-5.5-2.8-8.1-0.1C23.9,32,25.8,34,24,35.9c-1.3,1.3-3.4,1.3-4.6,0c-2.1-2.2,0.4-4-1.7-7
	c-2-2.9-5.4-0.5-7.6-4c-1.4-2.1-0.8-5,1.1-6.3c2.2-1.6,5.1-1.2,6.8,1.2c2.2,3.1-1.2,6.2,0.6,8.5c1.6,2.1,4.6,3,7.3,0.7
	c2.8-2.4,1-4.7,2.9-6.2c1.1-0.8,2.5-0.9,3.5,0c2.1,1.7,0,3.4,3.1,6.3c2.5,2.4,5.1,2.5,6.7,1c2-2,0.8-2.8,1.8-4
	c0.7-0.8,2-0.8,2.7-0.2C47.1,26.4,47.4,27.7,46.7,28.6z"/>
</svg>
